<?xml version="1.0" encoding="utf-8"?>
<!-- Generator: Adobe Illustrator 23.0.1, SVG Export Plug-In . SVG Version: 6.00 Build 0)  -->
<svg version="1.1" id="Layer_1" xmlns="http://www.w3.org/2000/svg" xmlns:xlink="http://www.w3.org/1999/xlink" x="0px" y="0px"
	 viewBox="0 0 511.8 513.2" style="enable-background:new 0 0 511.8 513.2;" xml:space="preserve">
<style type="text/css">
	.st0{fill:#CD637D;}
</style>
<g>
	<path class="st0" d="M510.4,151.1c-1.4-27.4-5.6-45.7-12-62.6c-6.3-16.9-15.5-30.9-29.5-45.7c-14.1-14.1-28.8-23.2-45.7-29.5
		C407,7,388,2.8,361.3,1.4C334.6,0,325.5,0,255.9,0s-78,0-105.4,1.4C123,2.8,104.7,7,88.6,13.4c-16.9,6.3-30.9,15.5-45.7,29.5
		C28.8,56.9,19.7,71.7,13.4,88.6c-6.3,16.2-10.5,35.1-12,62.6C0,178.6,0,187,0,256.6c0,69.6,0,78,1.4,105.4
		c1.4,27.4,5.6,45.7,12,62.6c6.3,16.9,15.5,30.9,29.5,45.7c14.1,14.1,28.8,23.2,45.7,29.5c16.2,6.3,35.1,10.5,61.9,12
		c27.4,1.4,35.9,1.4,105.4,1.4s78,0,105.4-1.4s45.7-5.6,61.9-12c16.9-6.3,30.9-15.5,45.7-29.5c14.1-14.1,23.2-28.8,29.5-45.7
		c6.3-16.2,10.5-35.1,12-62.6s1.4-35.9,1.4-105.4S511.8,178.6,510.4,151.1z M464.7,359.2c-1.4,25.3-5.6,38.7-9.1,47.8
		c-4.9,12-10.5,20.4-19,29.5c-9.1,9.1-17.6,14.8-29.5,19c-9.1,3.5-22.5,7.7-47.8,9.1c-26.7,1.4-35.1,1.4-103.3,1.4
		s-76.6,0-103.3-1.4c-25.3-1.4-38.7-5.6-47.8-9.1c-12-4.9-20.4-10.5-29.5-19c-9.1-9.1-14.8-17.6-19-29.5c-3.5-9.1-7.7-22.5-9.1-47.8
		c-1.4-26.7-1.4-35.1-1.4-103.3s0-76.6,1.4-103.3c1.4-25.3,5.6-38.7,9.1-47.8c4.9-12,10.5-20.4,19-29.5c9.1-9.1,17.6-14.8,29.5-19
		c9.1-3.5,22.5-7.7,47.8-9.1c26.7-0.7,35.1-1.4,103.3-1.4s76.6,0,103.3,1.4c25.3,1.4,38.7,5.6,47.8,9.1c12,4.9,20.4,9.8,29.5,19
		c9.1,9.1,14.8,17.6,19,29.5c3.5,9.1,7.7,22.5,9.1,47.8c1.4,26.7,1.4,35.1,1.4,103.3S466.1,332.5,464.7,359.2z"/>
	
		<ellipse transform="matrix(0.7071 -0.7071 0.7071 0.7071 30.5933 312.8731)" class="st0" cx="393" cy="119.5" rx="30.9" ry="30.9"/>
	<path class="st0" d="M255.9,124.4c-72.4,0-131.5,59.1-131.5,131.5s59.1,131.5,131.5,131.5s131.5-59.1,131.5-131.5
		S329,124.4,255.9,124.4z M255.9,341.7c-47.1,0-85.8-38-85.8-85.8c0-47.1,38-85.8,85.8-85.8c47.1,0,85.8,38,85.8,85.8
		C341.7,303,303,341.7,255.9,341.7z"/>
</g>
</svg>
