<?xml version="1.0" encoding="utf-8"?>
<!-- Generator: Adobe Illustrator 23.0.1, SVG Export Plug-In . SVG Version: 6.00 Build 0)  -->
<svg version="1.1" id="Layer_1" xmlns="http://www.w3.org/2000/svg" xmlns:xlink="http://www.w3.org/1999/xlink" x="0px" y="0px"
	 viewBox="0 0 728.5 239" style="enable-background:new 0 0 728.5 239;" xml:space="preserve">
<style type="text/css">
	.st0{fill-rule:evenodd;clip-rule:evenodd;fill:#414142;}
</style>
<g>
	<path class="st0" d="M728.5,211.4c0,18.8-11.5,27.6-32.2,27.6h-39.5v-18.8h39.5c3.6,0,6.7-0.6,7.9-1.9c1.2-1.3,2.4-3.2,2.4-5.7
		c0-2.5-1.2-5-2.4-6.3c-1.2-1.3-3.6-1.9-7.3-1.9c-18.8-0.7-42.5,0.6-42.5-27c0-12.5,7.9-26.3,29.2-26.3h40.7V170h-37.7
		c-3.6,0-6.1,0-7.9,1.2c-1.8,1.9-3,3.8-3,6.9c0,3.1,1.8,5,4.2,6.3c2.4,0.6,4.9,1.3,7.9,1.3h10.9c11.5,0,18.8,2.5,23.7,6.9
		C726,197,728.4,202.6,728.5,211.4L728.5,211.4z M642.9,192.6c-4.9-4.4-12.2-6.9-23.7-6.9h-10.9c-3,0-5.5-0.6-7.9-1.2
		c-2.4-1.2-4.3-3.1-4.3-6.3c0-3.2,0.6-5,3-6.9c1.8-1.3,4.2-1.3,7.9-1.3h37.6v-18.8H604c-21.8,0-29.1,13.8-29.1,26.4
		c0,27.6,23.7,26.3,42.5,27c3.6,0,6.1,0.6,7.3,1.9c1.2,1.2,2.4,3.7,2.4,6.3c0,2.5-1.2,4.4-2.4,5.6c-1.8,1.3-4.3,1.9-7.9,1.9h-39.5
		V239h39.5c20.6,0,32.2-8.8,32.2-27.6C648.9,202.7,646.5,197,642.9,192.6L642.9,192.6z M565.2,220.8h-47.9v-17.6h46.7v-17.6h-46.7
		v-16.3h47.9v-18.2h-68V239h68V220.8L565.2,220.8z M475.3,155.6c-6.7-3.8-14.5-4.4-24.9-4.4h-46.7V239h20.6v-32h21.9
		c7.3,0,11.5,0.6,14.5,3.8c3.6,4.4,3.6,11.9,3.6,17.6V239h20v-17c0-8.2-0.6-11.9-3-16.3c-1.8-2.5-5.5-5.6-10.3-7.5
		c5.4-1.9,14.5-9.4,14.5-23.2C485.6,165,482,159.3,475.3,155.6L475.3,155.6z M360,151.2h-65L268.9,180L244,151.2h-82V239h80.7
		l26.1-28.9l24.9,28.9h39.5v-29.5h25.5c17.6,0,35.2-5,35.2-29.5C394,156.2,375.8,151.2,360,151.2L360,151.2z M458.9,187.5
		c-3,1.3-6.1,1.3-9.7,1.3l-24.9,0.6v-20.1h24.9c3.6,0,7.3,0,9.7,1.9c2.4,1.3,4.2,3.8,4.2,7.5C463.2,182.5,461.3,185.7,458.9,187.5
		L458.9,187.5z M360,191.9h-26.7v-22.6H360c7.3,0,12.1,3.1,12.1,10.7C372.1,187.5,367.3,191.9,360,191.9L360,191.9z M281.7,195
		l31.6-34.5v70.9L281.7,195L281.7,195z M232.5,220.8h-50.4v-17.6H227v-17.6h-44.9v-16.3h51l22.5,25.7L232.5,220.8L232.5,220.8z
		 M672,87.8h-29.1L604.6,22v65.9h-41.3l-7.9-19.5H513l-7.9,19.5h-23.7c-9.7,0-22.5-2.5-29.8-10.1c-6.7-7.5-10.3-17.6-10.3-33.2
		c0-13.2,1.8-25.1,10.9-34.5c6.1-6.9,17-10,31-10h19.4v18.8h-19.4c-7.3,0-11.5,1.3-15.8,5c-3.6,3.8-5.5,10.7-5.5,20.1
		c0,9.4,1.8,16.3,5.5,20.7c3,3.1,8.5,4.4,13.9,4.4h9.1l29.1-69H550l34,82.8V0h31.6l35.8,60.8V0H672C672,0,672,87.8,672,87.8z M431,0
		h-20.6v87.8H431L431,0L431,0z M387.9,3.8C381.2,0,374,0,363.6,0h-46.7v87.8h20v-32h21.8c7.3,0,12.1,0.6,15.2,3.8
		c3.6,4.4,3,11.9,3,17v11.3h20.6V70.3c0-7.5-0.6-11.3-3.6-15.7c-1.8-2.5-5.5-5.6-9.7-7.5c5.5-2.5,14.6-9.4,14.6-23.2
		C398.8,13.8,394.6,8.2,387.9,3.8L387.9,3.8z M302.3,69.6H255V52.1h46.7V33.8H255V18.2h47.3V0h-68v87.8h68V69.6z M219.1,0h-33.4
		l-24.9,59.6L134.2,0h-32.8v82.8L66.8,0H36.4L0,87.8h21.9l7.9-19.5h42.5l7.9,19.5h41.3v-69l29.7,69h17.6l29.7-69v69h20.6
		C219.1,87.8,219.1,0,219.1,0z M548.2,49.5L534.2,15l-14,34.5H548.2L548.2,49.5z M372.1,35.7c-3,1.9-6,1.9-10.3,1.9h-24.9V18.2h24.9
		c3.6,0,7.9,0,10.3,1.3c2.4,1.9,3.7,4.4,3.7,8.2C375.8,31.4,374.5,34.5,372.1,35.7L372.1,35.7z M37,49.5L51,15l13.9,34.5H37z"/>
</g>
</svg>
