<?xml version="1.0" encoding="utf-8"?>
<!-- Generator: Adobe Illustrator 23.0.1, SVG Export Plug-In . SVG Version: 6.00 Build 0)  -->
<svg version="1.1" id="Layer_1" xmlns="http://www.w3.org/2000/svg" xmlns:xlink="http://www.w3.org/1999/xlink" x="0px" y="0px"
	 viewBox="0 0 725.7 219.9" style="enable-background:new 0 0 725.7 219.9;" xml:space="preserve">
<style type="text/css">
	.st0{fill:#010101;}
</style>
<g>
	<polygon class="st0" points="343.3,37 306.2,113.4 300,37 262.1,37 262.1,37 277.5,166.1 249.8,219.9 292.2,219.9 382.5,37 	"/>
	<path class="st0" d="M566.9,34.6L566.9,34.6c-18.2,0-32.5,5.5-43.5,8L520.1,74c5.5-3,22.8-8.5,37.2-8.9c14.4-0.5,22.8,2.9,19.8,17
		c-42.7,0-71.4,10-77.3,41.4c-8.4,53.9,43.5,52.4,64.2,29l-2.5,12.9h38L616,79.5C622.7,43.1,593.6,34.1,566.9,34.6z M569.5,122.4
		L569.5,122.4c-2.1,11.5-10.2,16.5-19.8,16.9c-8.5,0.5-16.1-7.9-10.6-17.9c4.3-8.5,16.1-10.5,23.3-10.5h9.3
		C570.8,114.9,570.4,118.4,569.5,122.4z"/>
	<path class="st0" d="M102.2,1.2L102.2,1.2l-70.8,0L0,165.3h41.6L51.8,111h29.7c28.4,0,52.2-20,58.6-53.9
		C147.3,18.7,123.1,1.2,102.2,1.2z M101,57.1c-2.5,12.5-13.1,22.4-23.7,22.4H57.7l8.9-44.9H87C97.2,34.7,104,44.6,101,57.1L101,57.1
		z"/>
	<path class="st0" d="M196.7,34.6L196.7,34.6c-17.9,0-32.2,5.5-42.6,8L150.8,74c5-3,22.1-8.5,36.3-8.9c14.2-0.5,22.5,2.9,20,17
		c-42.2,0-70.5,10-76.3,41.4c-8.4,53.9,43,52.4,63,29l-2.5,12.9h38l16.3-85.8C252.2,43.1,223,34.1,196.7,34.6z M199.6,122.4
		c-2.1,11.5-10.5,16.5-20.1,17c-8.3,0.5-15.4-7.9-9.9-17.9c4.2-8.5,15.8-10.5,22.5-10.5h9.6C200.9,114.9,200,118.4,199.6,122.4
		L199.6,122.4z"/>
	<polygon class="st0" points="648.4,0.8 617,165.3 655.7,165.3 687.5,0.7 648.4,0.7 	"/>
	<path class="st0" d="M471.1,1.2L471.1,1.2l-70.7,0L369,165.3h41.1l10.6-54.3h29.3c28.8,0,52.5-20,58.8-53.9
		C516,18.7,491.4,1.2,471.1,1.2z M469.7,57.1c-2.5,12.5-13.6,22.4-24.1,22.4h-19.1l8.5-44.9h20.3C465.9,34.7,472.3,44.6,469.7,57.1
		L469.7,57.1z"/>
	<polygon class="st0" points="689.4,2.6 695.8,2.6 695.8,22 695.8,22 698.4,22 698.4,2.6 704.8,2.6 704.8,0 689.4,0 	"/>
	<path class="st0" d="M722.3,0l-4.7,15.3l-1,3.5c-0.2-0.7-0.5-1.8-0.9-3.2L711.1,0h-3.8v22l0,0h2.4V3.3l5.6,18.7h2.4l5.6-18.5V22
		h2.5V0H722.3z"/>
</g>
</svg>
