<?xml version="1.0" encoding="utf-8"?>
<!-- Generator: Adobe Illustrator 23.0.1, SVG Export Plug-In . SVG Version: 6.00 Build 0)  -->
<svg version="1.1" id="Layer_1" xmlns="http://www.w3.org/2000/svg" xmlns:xlink="http://www.w3.org/1999/xlink" x="0px" y="0px"
	 viewBox="0 0 798.3 118.2" style="enable-background:new 0 0 798.3 118.2;" xml:space="preserve">
<style type="text/css">
	.st0{fill:#010101;}
</style>
<g>
	<path class="st0" d="M109.4,116.6H82l15.6-87.4l-34.8,87.4H44.2l-2.4-86.9l-16.3,86.9H0L21.3,2.8h39.2l1.1,70.4L88.1,2.8h42.4
		 M176.4,75.4c-2.9-0.3-4.1-0.4-6.1-0.4c-15.4,0-23.2,4.7-23.2,14.1c0,5.8,3.8,9.4,9.7,9.4C168,98.5,176,89.1,176.4,75.4L176.4,75.4
		z M196.3,116.6h-22.6l0.6-9.6c-6.9,7.6-16.1,11.2-28.6,11.2c-14.8,0-25-10.3-25-25.3c0-22.5,17.7-35.6,47.9-35.6
		c3.1,0,7,0.2,11.1,0.7c0.8-3.1,1.1-4.4,1.1-6c0-6.1-4.7-8.4-17.5-8.4c-13.3-0.2-24.3,2.8-28.8,4.2l3.8-20.8
		c13.6-3.5,22.6-4.9,32.6-4.9c23.4,0,35.8,9.4,35.8,27.1c0.1,4.7-0.8,10.6-2.2,18.3C202,80.9,197,109.6,196.3,116.6L196.3,116.6z
		 M562,5.9l-4.4,24.7c-9.8-4.4-16.8-6.2-24.4-6.2c-20.3,0-34.7,17.6-34.7,42.6c0,17.3,9.6,27.7,25.5,27.7c6.7,0,14.1-1.8,23.1-5.8
		l-4.7,25.9c-10.1,2.4-16.6,3.3-24.1,3.3c-29.4,0-47.7-18.8-47.7-49.1C470.6,28.5,496,0,532.1,0C543.9,0,558,4.5,562,5.9z
		 M606.1,75.4c-2.9-0.3-4.2-0.4-6.1-0.4c-15.5,0-23.3,4.7-23.3,14.1c0,5.8,3.8,9.4,9.8,9.4C597.5,98.5,605.5,89.1,606.1,75.4
		L606.1,75.4z M625.8,116.6h-22.6l0.5-9.6c-6.9,7.6-16.1,11.2-28.5,11.2c-14.9,0-24.9-10.3-24.9-25.3c0-22.5,17.7-35.6,47.9-35.6
		c3.1,0,7,0.2,11.1,0.7c0.8-3.1,1.1-4.4,1.1-6c0-6.1-4.7-8.4-17.5-8.4c-13.3-0.2-24.3,2.8-28.8,4.2l3.8-20.8
		c13.7-3.5,22.6-4.9,32.6-4.9c23.4,0,35.8,9.4,35.8,27.1c0.1,4.7-0.8,10.6-2.1,18.3C631.6,80.9,626.5,109.6,625.8,116.6L625.8,116.6
		z M317.5,115.2c-7.5,2.1-13.3,3-19.6,3c-14,0-21.6-7.2-21.6-20.3c-0.2-4.1,2-14.8,3.7-24.6c1.7-8.6,11.9-63.1,11.9-63.1H319
		l-3.2,14h13.9L326,46.3h-14c-3.1,17.7-7.6,39.5-7.7,42.4c0,4.8,2.9,6.9,9.4,6.9c3.1,0,5.5-0.3,7.4-0.9L317.5,115.2L317.5,115.2z
		 M400.5,114.4c-9.3,2.5-18.3,3.7-27.8,3.7c-30.3,0-46.2-14.2-46.2-41.3c0-31.6,20.1-54.9,47.4-54.9c22.4,0,36.7,13.1,36.7,33.5
		c0,6.8-1,13.4-3.3,22.8h-54c-1.8,13.4,7.8,19,23.6,19c9.7,0,18.4-1.8,28.2-5.8L400.5,114.4L400.5,114.4z M385.3,59.6
		c0.1-1.9,2.8-16.5-12.6-16.5c-8.6,0-14.7,5.9-17.3,16.5L385.3,59.6L385.3,59.6z M212.6,53.3c0,11.7,6.3,19.7,20.8,25.8
		c11,4.6,12.7,6,12.7,10.2c0,5.8-4.9,8.4-15.7,8.4c-8.1,0-15.6-1.1-24.4-3.6c0,0-3.5,20.4-3.7,21.3c6.2,1.2,11.8,2.3,28.4,2.8
		c28.8,0,42.1-9.8,42.1-30.9c0-12.7-5.6-20.2-19.3-25.8c-11.5-4.7-12.8-5.7-12.8-10c0-5,4.6-7.6,13.4-7.6c5.4,0,12.7,0.5,19.6,1.5
		l3.9-21.5c-7.1-1-17.8-1.8-24-1.8C223.1,22.1,212.6,36.3,212.6,53.3L212.6,53.3z M770.1,116.6h-25.8l1.3-8.6
		c-7.5,7.1-15.2,10.2-25.2,10.2c-19.8,0-32.9-15.2-32.9-38.4c0-30.7,20.4-56.7,44.4-56.7c10.5,0,18.6,3.9,26,12.6L764,2.8h26.9
		C790.9,2.8,770.1,116.6,770.1,116.6z M730,95.2c12.7,0,21.6-12.8,21.6-31.1c0-11.8-5.1-18.1-14.5-18.1C724.7,45.9,716,58.8,716,77
		C716,89.1,720.6,95.2,730,95.2L730,95.2z M650.4,24.1c-3.4,28.6-9.5,57.6-14.3,86.2l-1.2,6.2h27.3C672,60,674.3,49,689.7,50.4
		c2.4-11.6,6.9-21.7,10.3-26.8c-11.5-2.1-17.8,3.6-26.2,14.5c0.7-4.7,1.9-9.3,1.6-13.9L650.4,24.1L650.4,24.1z M426,24.1
		c-3.4,28.6-9.5,57.6-14.2,86.2l-1.3,6.2h27.3c9.7-56.6,12.1-67.5,27.3-66.2c2.5-11.6,7-21.7,10.4-26.8
		c-11.4-2.1-17.8,3.6-26.1,14.5c0.7-4.7,1.9-9.3,1.7-13.9L426,24.1L426,24.1z M782.1,109.3c0-4,3.7-7.3,8.1-7.3
		c4.5,0,8.1,3.3,8.1,7.3c0,4-3.6,7.2-8.1,7.2C785.8,116.6,782.1,113.3,782.1,109.3L782.1,109.3z M790.2,114.8c3.4,0,6.2-2.5,6.2-5.5
		c0-3.1-2.8-5.5-6.2-5.5c-3.4,0-6.1,2.4-6.1,5.5C784.1,112.3,786.8,114.8,790.2,114.8L790.2,114.8z M789.1,112.5h-1.6v-6.3h3
		c0.7,0,1.3,0,1.9,0.3c0.6,0.3,0.9,0.9,0.9,1.6c0,0.8-0.5,1.4-1.3,1.7l1.3,2.8h-1.7l-1.1-2.5h-1.2L789.1,112.5L789.1,112.5z
		 M789.1,108.9h0.9c0.4,0,0.7,0,1-0.1c0.4-0.2,0.5-0.5,0.5-0.8c0-0.3-0.2-0.5-0.4-0.7c-0.3-0.1-0.8-0.1-1.1-0.1h-0.9L789.1,108.9
		L789.1,108.9z"/>
</g>
</svg>
