<?xml version="1.0" encoding="utf-8"?>
<!-- Generator: Adobe Illustrator 23.0.1, SVG Export Plug-In . SVG Version: 6.00 Build 0)  -->
<svg version="1.1" id="Layer_1" xmlns="http://www.w3.org/2000/svg" xmlns:xlink="http://www.w3.org/1999/xlink" x="0px" y="0px"
	 viewBox="0 0 739.5 237.8" style="enable-background:new 0 0 739.5 237.8;" xml:space="preserve">
<style type="text/css">
	.st0{fill:#010101;}
</style>
<g>
	<path class="st0" d="M308,4.6l-50.3,231.8h61L367.4,4.6 M219.6,4.6l-62.5,157L131.1,27.4c-3-15.2-15.2-22.9-27.4-22.9H1.5L0,10.7
		c21.3,4.6,44.2,12.2,59.5,19.8c9.1,4.6,10.7,9.1,13.7,19.8l47.3,184.5h64L282.1,3h-62.5L219.6,4.6z M693.7,4.6h-51.8
		c-12.2,0-21.3,6.1-25.9,16.8l-90,215h62.5l12.2-35.1H677l7.6,35.1h54.9L693.7,4.6L693.7,4.6z M620.5,154l32-86.9l18.3,86.9H620.5z
		 M446.7,68.6c0-7.6,7.6-16.8,25.9-19.8c9.1-1.5,32-1.5,59.5,10.7l10.7-48.8C529.1,6.1,509.2,0,486.4,0c-59.5,0-100.6,32-100.6,76.2
		c0,33.5,30.5,51.8,51.8,62.5c22.9,10.7,30.5,18.3,30.5,29c0,15.2-18.3,22.9-36.6,22.9c-30.5,0-47.3-7.6-61-15.2l-10.7,50.3
		c13.7,6.1,39.6,12.2,67.1,12.2c62.5,0,103.7-30.5,103.7-79.3C530.6,100.6,445.2,96.1,446.7,68.6L446.7,68.6z"/>
</g>
</svg>
