<?xml version="1.0" encoding="utf-8"?>
<!-- Generator: Adobe Illustrator 23.0.1, SVG Export Plug-In . SVG Version: 6.00 Build 0)  -->
<svg version="1.1" id="Layer_1" xmlns="http://www.w3.org/2000/svg" xmlns:xlink="http://www.w3.org/1999/xlink" x="0px" y="0px"
	 viewBox="0 0 485.5 502.5" style="enable-background:new 0 0 485.5 502.5;" xml:space="preserve">
<style type="text/css">
	.st0{fill:#6C6D6D;}
</style>
<path class="st0" d="M485.5,445.3L364.1,323.8c25.5-33.9,40.6-75.9,40.6-121.5C404.7,90.8,313.9,0,202.4,0S0,90.8,0,202.4
	c0,111.6,90.8,202.4,202.4,202.4c36.8,0,71.3-9.9,101-27.1l124.9,124.9L485.5,445.3z M80.9,202.4c0-66.9,54.5-121.4,121.4-121.4
	c66.9,0,121.4,54.5,121.4,121.4c0,66.9-54.5,121.4-121.4,121.4C135.4,323.8,80.9,269.3,80.9,202.4z"/>
</svg>
