<?xml version="1.0" encoding="utf-8"?>
<!-- Generator: Adobe Illustrator 23.0.1, SVG Export Plug-In . SVG Version: 6.00 Build 0)  -->
<svg version="1.1" id="Layer_1" xmlns="http://www.w3.org/2000/svg" xmlns:xlink="http://www.w3.org/1999/xlink" x="0px" y="0px"
	 viewBox="0 0 522.9 522.9" style="enable-background:new 0 0 522.9 522.9;" xml:space="preserve">
<style type="text/css">
	.st0{fill:#644545;}
</style>
<path class="st0" d="M464.8,0H58.1C26.1,0,0,26.1,0,58.1v406.7c0,32,26.1,58.1,58.1,58.1h203.4V319.6h-58.1v-71.9h58.1v-59.6
	c0-62.9,35.2-107,109.4-107l52.4,0.1v75.7h-34.8c-28.9,0-39.9,21.7-39.9,41.8v49.1h74.6l-16.5,71.9h-58.1v203.4h116.2
	c32,0,58.1-26.1,58.1-58.1V58.1C522.9,26.1,496.8,0,464.8,0z"/>
</svg>
