<?xml version="1.0" encoding="utf-8"?>
<!-- Generator: Adobe Illustrator 23.0.1, SVG Export Plug-In . SVG Version: 6.00 Build 0)  -->
<svg version="1.1" id="Layer_1" xmlns="http://www.w3.org/2000/svg" xmlns:xlink="http://www.w3.org/1999/xlink" x="0px" y="0px"
	 viewBox="0 0 563.4 563.4" style="enable-background:new 0 0 563.4 563.4;" xml:space="preserve">
<style type="text/css">
	.st0{fill:#644545;}
</style>
<path class="st0" d="M500.8,0H62.6C28.2,0,0,28.2,0,62.6v438.2c0,34.5,28.2,62.6,62.6,62.6h438.2c34.4,0,62.6-28.1,62.6-62.6V62.6
	C563.4,28.2,535.3,0,500.8,0z M281.2,172.9c59.8,0,108.4,48.5,108.4,108.3c0,59.8-48.5,108.4-108.4,108.4
	c-59.9,0-108.4-48.5-108.4-108.4C172.9,221.4,221.4,172.9,281.2,172.9z M500.8,476.3c0,12-9.7,21.6-21.7,21.6H84.3
	c-12,0-21.7-9.6-21.7-21.6V250.4h48.5c-1.9,10-3.3,20.2-3.3,30.8c0,95.8,77.7,173.4,173.4,173.4c95.8,0,173.4-77.7,173.4-173.4
	c0-10.6-1.3-20.8-3.2-30.8h49.5V476.3z M500.8,134.8c0,11.9-9.7,21.7-21.7,21.7h-50.6c-12,0-21.7-9.8-21.7-21.7V84.2
	c0-12,9.7-21.6,21.6-21.6h50.6c12,0,21.7,9.7,21.7,21.6V134.8z"/>
</svg>
